<svg xmlns="http://www.w3.org/2000/svg" width="182.02999999999997" height="35" viewBox="0 0 182.02999999999997 35"><rect class="svg__rect" x="0" y="0" width="106.16" height="35" fill="#299BBF"/><rect class="svg__rect" x="104.16" y="0" width="77.86999999999999" height="35" fill="#E9E9E9"/><path class="svg__text" d="M15.70 22L14.22 22L14.22 13.47L17.48 13.47Q18.91 13.47 19.75 14.21Q20.59 14.96 20.59 16.18L20.59 16.18Q20.59 17.44 19.77 18.13Q18.95 18.83 17.46 18.83L17.46 18.83L15.70 18.83L15.70 22ZM15.70 14.66L15.70 17.64L17.48 17.64Q18.27 17.64 18.69 17.27Q19.10 16.90 19.10 16.19L19.10 16.19Q19.10 15.50 18.68 15.09Q18.26 14.68 17.52 14.66L17.52 14.66L15.70 14.66ZM26.36 22L24.88 22L24.88 13.47L27.88 13.47Q29.35 13.47 30.15 14.13Q30.96 14.79 30.96 16.05L30.96 16.05Q30.96 16.90 30.54 17.48Q30.13 18.06 29.39 18.37L29.39 18.37L31.31 21.92L31.31 22L29.72 22L28.01 18.71L26.36 18.71L26.36 22ZM26.36 14.66L26.36 17.52L27.88 17.52Q28.63 17.52 29.05 17.15Q29.48 16.77 29.48 16.11L29.48 16.11Q29.48 15.43 29.09 15.05Q28.70 14.68 27.92 14.66L27.92 14.66L26.36 14.66ZM35.08 18.00L35.08 18.00L35.08 17.52Q35.08 16.28 35.52 15.32Q35.97 14.37 36.77 13.86Q37.58 13.35 38.62 13.35Q39.66 13.35 40.47 13.85Q41.28 14.35 41.72 15.29Q42.15 16.23 42.16 17.48L42.16 17.48L42.16 17.96Q42.16 19.21 41.73 20.16Q41.29 21.10 40.49 21.61Q39.68 22.12 38.63 22.12L38.63 22.12Q37.60 22.12 36.78 21.61Q35.97 21.10 35.53 20.17Q35.09 19.23 35.08 18.00ZM36.56 17.46L36.56 17.96Q36.56 19.36 37.11 20.13Q37.66 20.90 38.63 20.90L38.63 20.90Q39.62 20.90 40.15 20.15Q40.68 19.40 40.68 17.96L40.68 17.96L40.68 17.51Q40.68 16.09 40.14 15.34Q39.61 14.58 38.62 14.58L38.62 14.58Q37.66 14.58 37.12 15.33Q36.58 16.09 36.56 17.46L36.56 17.46ZM46.02 19.57L46.02 19.57L47.50 19.57Q47.50 20.25 47.84 20.59Q48.17 20.93 48.81 20.93L48.81 20.93Q49.41 20.93 49.76 20.54Q50.12 20.14 50.12 19.45L50.12 19.45L50.12 13.47L51.59 13.47L51.59 19.45Q51.59 20.68 50.83 21.40Q50.06 22.12 48.81 22.12L48.81 22.12Q47.48 22.12 46.75 21.44Q46.02 20.77 46.02 19.57ZM61.85 22L56.28 22L56.28 13.47L61.81 13.47L61.81 14.66L57.76 14.66L57.76 17.02L61.26 17.02L61.26 18.19L57.76 18.19L57.76 20.82L61.85 20.82L61.85 22ZM65.78 18.19L65.78 18.19L65.78 17.39Q65.78 16.19 66.21 15.27Q66.64 14.35 67.43 13.85Q68.23 13.35 69.28 13.35L69.28 13.35Q70.70 13.35 71.56 14.12Q72.42 14.89 72.56 16.29L72.56 16.29L71.08 16.29Q70.98 15.37 70.55 14.96Q70.12 14.55 69.28 14.55L69.28 14.55Q68.32 14.55 67.80 15.26Q67.28 15.96 67.27 17.33L67.27 17.33L67.27 18.09Q67.27 19.47 67.76 20.20Q68.26 20.92 69.21 20.92L69.21 20.92Q70.09 20.92 70.53 20.53Q70.97 20.14 71.08 19.22L71.08 19.22L72.56 19.22Q72.43 20.59 71.55 21.35Q70.67 22.12 69.21 22.12L69.21 22.12Q68.19 22.12 67.42 21.63Q66.64 21.15 66.22 20.26Q65.80 19.37 65.78 18.19ZM78.55 14.66L75.92 14.66L75.92 13.47L82.68 13.47L82.68 14.66L80.02 14.66L80.02 22L78.55 22L78.55 14.66ZM86.01 19.42L86.01 19.42L87.49 19.42Q87.49 20.15 87.97 20.55Q88.45 20.95 89.35 20.95L89.35 20.95Q90.12 20.95 90.51 20.63Q90.90 20.32 90.90 19.80L90.90 19.80Q90.90 19.24 90.50 18.94Q90.11 18.63 89.08 18.32Q88.05 18.01 87.44 17.63L87.44 17.63Q86.27 16.90 86.27 15.72L86.27 15.72Q86.27 14.69 87.11 14.02Q87.95 13.35 89.29 13.35L89.29 13.35Q90.18 13.35 90.88 13.68Q91.58 14.01 91.98 14.61Q92.38 15.22 92.38 15.96L92.38 15.96L90.90 15.96Q90.90 15.29 90.48 14.91Q90.06 14.54 89.28 14.54L89.28 14.54Q88.56 14.54 88.15 14.85Q87.75 15.16 87.75 15.71L87.75 15.71Q87.75 16.18 88.19 16.50Q88.62 16.81 89.62 17.10Q90.61 17.40 91.22 17.78Q91.82 18.16 92.10 18.65Q92.38 19.13 92.38 19.79L92.38 19.79Q92.38 20.86 91.56 21.49Q90.75 22.12 89.35 22.12L89.35 22.12Q88.42 22.12 87.64 21.77Q86.87 21.43 86.44 20.83Q86.01 20.22 86.01 19.42Z" fill="#FFFFFF"/><path class="svg__text" d="M117.92 17.80L117.92 17.80Q117.92 16.54 118.52 15.54Q119.12 14.55 120.17 13.99Q121.22 13.43 122.54 13.43L122.54 13.43Q123.69 13.43 124.61 13.84Q125.54 14.25 126.15 15.02L126.15 15.02L124.64 16.39Q123.83 15.40 122.66 15.40L122.66 15.40Q121.97 15.40 121.44 15.70Q120.91 16 120.61 16.54Q120.32 17.09 120.32 17.80L120.32 17.80Q120.32 18.51 120.61 19.05Q120.91 19.60 121.44 19.90Q121.97 20.20 122.66 20.20L122.66 20.20Q123.83 20.20 124.64 19.22L124.64 19.22L126.15 20.58Q125.54 21.35 124.62 21.76Q123.69 22.17 122.54 22.17L122.54 22.17Q121.22 22.17 120.17 21.61Q119.12 21.05 118.52 20.05Q117.92 19.06 117.92 17.80ZM137.07 22L130.69 22L130.69 13.60L133.07 13.60L133.07 20.11L137.07 20.11L137.07 22ZM143.87 22L141.49 22L141.49 13.60L143.87 13.60L143.87 22ZM148.62 17.80L148.62 17.80Q148.62 16.54 149.22 15.54Q149.81 14.55 150.86 13.99Q151.92 13.43 153.23 13.43L153.23 13.43Q154.39 13.43 155.31 13.84Q156.23 14.25 156.85 15.02L156.85 15.02L155.34 16.39Q154.52 15.40 153.36 15.40L153.36 15.40Q152.67 15.40 152.14 15.70Q151.61 16 151.31 16.54Q151.01 17.09 151.01 17.80L151.01 17.80Q151.01 18.51 151.31 19.05Q151.61 19.60 152.14 19.90Q152.67 20.20 153.36 20.20L153.36 20.20Q154.52 20.20 155.34 19.22L155.34 19.22L156.85 20.58Q156.24 21.35 155.31 21.76Q154.39 22.17 153.23 22.17L153.23 22.17Q151.92 22.17 150.86 21.61Q149.81 21.05 149.22 20.05Q148.62 19.06 148.62 17.80ZM163.74 22L161.38 22L161.38 13.60L163.74 13.60L163.74 17.09L166.99 13.60L169.61 13.60L166.18 17.32L169.79 22L167.03 22L164.63 18.95L163.74 19.90L163.74 22Z" fill="#3C9AD5" x="117.16"/></svg>